# xmcd
#
# Track frame offsets:
#	150
#	22399
#	34505
#	47207
#	63595
#	78642
#	100206
#	115390
#	129391
#	152505
#	167871
#
# Disc length: 2481 seconds
#
# Revision: 0
# Processed by: cddbd v1.5.2PL0 Copyright (c) Steve Scherf et al.
# Submitted via: EZCDAudioConverter 7.0.8.1
#
DISCID=9409af0b
DTITLE=Irvin Blais - Joyeux Noel
DYEAR=2015
DGENRE=Xmas
TTITLE0=Nos traditions
TTITLE1=C'est Noel
TTITLE2=L'pere Noel y'a l'look de mon pere
TTITLE3=Les fetes par chenous
TTITLE4=Avoye donc
TTITLE5=Orphelin
TTITLE6=Party d'Noel
TTITLE7=La soupe a 'Cine
TTITLE8=L'etoile de Bethleem
TTITLE9=Mon arbre de Noel
TTITLE10=Les douze coups
EXTD=
EXTT0=
EXTT1=
EXTT2=
EXTT3=
EXTT4=
EXTT5=
EXTT6=
EXTT7=
EXTT8=
EXTT9=
EXTT10=
PLAYORDER=
